<svg width="32" height="28" viewBox="0 0 32 28" fill="none" xmlns="http://www.w3.org/2000/svg">
<path d="M29.25 5H4.25C3.91848 5 3.60054 4.8683 3.36612 4.63388C3.1317 4.39946 3 4.08152 3 3.75C3 3.41848 3.1317 3.10054 3.36612 2.86612C3.60054 2.6317 3.91848 2.5 4.25 2.5H25.5C25.8315 2.5 26.1495 2.3683 26.3839 2.13388C26.6183 1.89946 26.75 1.58152 26.75 1.25C26.75 0.918479 26.6183 0.600537 26.3839 0.366117C26.1495 0.131696 25.8315 0 25.5 0H4.25C3.25544 0 2.30161 0.395088 1.59835 1.09835C0.895088 1.80161 0.5 2.75544 0.5 3.75V23.75C0.5 24.7446 0.895088 25.6984 1.59835 26.4017C2.30161 27.1049 3.25544 27.5 4.25 27.5H29.25C29.913 27.5 30.5489 27.2366 31.0178 26.7678C31.4866 26.2989 31.75 25.663 31.75 25V7.5C31.75 6.83696 31.4866 6.20107 31.0178 5.73223C30.5489 5.26339 29.913 5 29.25 5ZM29.25 25H4.25C3.91848 25 3.60054 24.8683 3.36612 24.6339C3.1317 24.3995 3 24.0815 3 23.75V7.28594C3.40134 7.42834 3.82415 7.50074 4.25 7.5H29.25V25ZM21.75 15.625C21.75 15.2542 21.86 14.8916 22.066 14.5833C22.272 14.275 22.5649 14.0346 22.9075 13.8927C23.2501 13.7508 23.6271 13.7137 23.9908 13.786C24.3545 13.8584 24.6886 14.037 24.9508 14.2992C25.213 14.5614 25.3916 14.8955 25.464 15.2592C25.5363 15.6229 25.4992 15.9999 25.3573 16.3425C25.2154 16.6851 24.975 16.978 24.6667 17.184C24.3584 17.39 23.9958 17.5 23.625 17.5C23.1277 17.5 22.6508 17.3025 22.2992 16.9508C21.9475 16.5992 21.75 16.1223 21.75 15.625Z" fill="#0EDD48"/>
</svg>
