<svg width="31" height="30" viewBox="0 0 31 30" fill="none" xmlns="http://www.w3.org/2000/svg">
<path d="M26.75 0.0388493C26.75 0.038158 26.7494 0.0375976 26.7487 0.0375979C25.7929 0.0379251 24.8534 0.412912 24.1325 1.1326L11.75 13.4751C11.5708 13.6543 11.4495 13.8832 11.4018 14.1321L11.4 14.1413L10.5375 18.5163C10.3552 19.3796 11.1206 20.1463 11.9838 19.9638L16.3588 19.1013L16.368 19.0996C16.6169 19.0519 16.8458 18.9305 17.025 18.7513L29.3675 6.36885C29.8844 5.85011 30.2363 5.18999 30.3787 4.47165C30.5211 3.75331 30.4478 3.00888 30.1679 2.33216C29.888 1.65543 29.4141 1.07667 28.8059 0.66879C28.198 0.261144 27.4831 0.0424109 26.7512 0.0401012C26.7506 0.040099 26.75 0.0395392 26.75 0.0388493ZM26.75 2.46072C26.75 2.46176 26.7508 2.4626 26.7519 2.4626C27.045 2.46324 27.3306 2.61319 27.61 2.89135C28.1675 3.44885 28.1675 4.05135 27.61 4.6101L15.7602 16.4574C15.5906 16.6271 15.3744 16.7427 15.1391 16.7898C14.2882 16.9599 13.5382 16.2091 13.7089 15.3583C13.7561 15.1231 13.8717 14.9071 14.0413 14.7375L25.8913 2.8876C26.1694 2.60944 26.455 2.45949 26.7481 2.45885C26.7492 2.45885 26.75 2.45969 26.75 2.46072ZM3.5 5.0001C1.84315 5.0001 0.5 6.34324 0.5 8.0001V27.0001C0.5 28.6569 1.84315 30.0001 3.5 30.0001H22.5C24.1569 30.0001 25.5 28.657 25.5 27.0001V16.5329C25.5 15.4192 24.1536 14.8615 23.3661 15.649C23.1317 15.8834 23 16.2013 23 16.5329V24.5001C23 26.1569 21.6569 27.5001 20 27.5001H6C4.34315 27.5001 3 26.157 3 24.5001V10.5001C3 8.84324 4.34315 7.5001 6 7.5001H13.9672C14.2988 7.5001 14.6167 7.3684 14.8511 7.13398C15.6386 6.34652 15.0809 5.0001 13.9672 5.0001H3.5Z" fill="#0EDD48"/>
</svg>
