<svg width="30" height="36" viewBox="0 0 30 36" fill="none" xmlns="http://www.w3.org/2000/svg">
<path d="M6.64337 4.16655C11.305 9.32488 18.9934 -1.80679 23.5434 2.23321C26.16 4.55655 25.3317 9.68988 21.935 13.0332M17.9834 21.3065C18.0134 20.7482 18.1684 19.7282 17.3217 18.9532C16.9982 18.6706 16.6205 18.4569 16.2117 18.3249C14.465 17.7082 12.3184 19.7699 13.8367 21.6582C14.6534 22.6715 15.2817 22.9832 15.2234 24.1349C15.1817 24.9449 14.385 25.7915 13.3367 26.1149C12.425 26.3949 11.42 26.0232 10.785 25.3132C10.0084 24.4465 10.085 23.6282 10.08 23.2715M17.3217 18.9549L18.2784 17.9965M10.8534 25.4215L9.94504 26.3299" stroke="#0EDD48" stroke-width="1.5" stroke-linecap="round" stroke-linejoin="round"/>
<path d="M25.455 9.05497C26.9967 9.35164 27.3434 10.325 27.8034 13.0283C28.2184 15.4616 28.335 18.3833 28.335 19.6283C28.2907 20.0848 28.1048 20.516 27.8034 20.8616C24.5784 24.2416 18.1767 30.625 14.9467 33.795C13.68 34.9283 11.7667 34.9533 10.42 33.9133C7.66503 31.435 5.01836 28.6333 2.42503 26.1033C1.38336 24.7616 1.40836 22.8533 2.54169 21.59C5.96003 18.045 12.145 11.9766 15.635 8.6233C15.985 8.3233 16.415 8.13664 16.8734 8.09497C17.6567 8.09497 19 8.19997 20.31 8.27497" stroke="#0EDD48" stroke-width="1.5" stroke-linecap="round" stroke-linejoin="round"/>
</svg>
