<svg width="30" height="30" viewBox="0 0 30 30" fill="none" xmlns="http://www.w3.org/2000/svg">
<path d="M16.6667 30V26.6667H24.3333L16.6667 19V14.3333L26.6667 24.3333V16.6667H30V30H16.6667ZM5 23.3333V21.6667H0V18.3333H10V13.3333H3.33333C2.41667 13.3333 1.63222 13.0072 0.98 12.355C0.327778 11.7028 0.00111111 10.9178 0 10V5C0 4.08333 0.326667 3.29889 0.98 2.64667C1.63333 1.99444 2.41778 1.66778 3.33333 1.66667H5V0H8.33333V1.66667H13.3333V5H3.33333V10H10C10.9167 10 11.7017 10.3267 12.355 10.98C13.0083 11.6333 13.3344 12.4178 13.3333 13.3333V18.3333C13.3333 19.25 13.0072 20.035 12.355 20.6883C11.7028 21.3417 10.9178 21.6678 10 21.6667H8.33333V23.3333H5Z" fill="#0EDD48"/>
</svg>
